<mxfile host="app.diagrams.net" agent="Mozilla/5.0 (Windows NT 10.0; Win64; x64; rv:133.0) Gecko/20100101 Firefox/133.0" version="25.0.3">
  <diagram id="C2fSY1v2SiZeoUbDoYyL" name="Page-1">
    <mxGraphModel dx="2381" dy="893" grid="1" gridSize="10" guides="1" tooltips="1" connect="1" arrows="1" fold="1" page="1" pageScale="1" pageWidth="1169" pageHeight="827" math="0" shadow="0">
      <root>
        <mxCell id="0" />
        <mxCell id="1" parent="0" />
        <mxCell id="y6iIFHCWrGGD8kHIuGfN-2" value="&lt;div&gt;figshare &lt;/div&gt;" style="text;html=1;align=center;verticalAlign=middle;resizable=0;points=[];autosize=1;strokeColor=none;fillColor=none;" parent="1" vertex="1">
          <mxGeometry x="283.5" y="294.4" width="70" height="30" as="geometry" />
        </mxCell>
        <mxCell id="y6iIFHCWrGGD8kHIuGfN-6" value="" style="shadow=0;dashed=0;html=1;strokeColor=none;fillColor=#4495D1;labelPosition=center;verticalLabelPosition=bottom;verticalAlign=top;align=center;outlineConnect=0;shape=mxgraph.veeam.2d.backup_repository;" parent="1" vertex="1">
          <mxGeometry x="283.5" y="325.71" width="80" height="63" as="geometry" />
        </mxCell>
        <mxCell id="y6iIFHCWrGGD8kHIuGfN-7" value="" style="image;aspect=fixed;html=1;points=[];align=center;fontSize=12;image=img/lib/azure2/general/Folder_Blank.svg;" parent="1" vertex="1">
          <mxGeometry x="453.79" y="334.4" width="56.21" height="45.61" as="geometry" />
        </mxCell>
        <mxCell id="y6iIFHCWrGGD8kHIuGfN-9" value="&lt;div&gt;SpectroSense &lt;br&gt;Dataset&lt;br&gt;&lt;/div&gt;" style="text;html=1;align=center;verticalAlign=middle;resizable=0;points=[];autosize=1;strokeColor=none;fillColor=none;" parent="1" vertex="1">
          <mxGeometry x="431.89" y="294.4" width="100" height="40" as="geometry" />
        </mxCell>
        <mxCell id="y6iIFHCWrGGD8kHIuGfN-10" value="" style="line;strokeWidth=2;html=1;" parent="1" vertex="1">
          <mxGeometry x="520" y="354.81" width="90" height="10" as="geometry" />
        </mxCell>
        <mxCell id="y6iIFHCWrGGD8kHIuGfN-27" value="" style="image;aspect=fixed;html=1;points=[];align=center;fontSize=12;image=img/lib/azure2/general/Folder_Blank.svg;flipV=0;flipH=1;" parent="1" vertex="1">
          <mxGeometry x="710" y="223.19" width="41.42" height="33.61" as="geometry" />
        </mxCell>
        <mxCell id="y6iIFHCWrGGD8kHIuGfN-28" value="" style="image;aspect=fixed;html=1;points=[];align=center;fontSize=12;image=img/lib/azure2/general/Folder_Blank.svg;flipV=0;flipH=1;" parent="1" vertex="1">
          <mxGeometry x="710" y="343" width="41.42" height="33.61" as="geometry" />
        </mxCell>
        <mxCell id="y6iIFHCWrGGD8kHIuGfN-29" value="" style="image;aspect=fixed;html=1;points=[];align=center;fontSize=12;image=img/lib/azure2/general/Folder_Blank.svg;flipV=0;flipH=1;" parent="1" vertex="1">
          <mxGeometry x="710" y="463" width="41.42" height="33.61" as="geometry" />
        </mxCell>
        <mxCell id="y6iIFHCWrGGD8kHIuGfN-31" value="&lt;u&gt;Participant 1&lt;br&gt;&lt;/u&gt;&lt;i&gt;SP001&lt;/i&gt;" style="text;html=1;align=center;verticalAlign=middle;resizable=0;points=[];autosize=1;strokeColor=none;fillColor=none;" parent="1" vertex="1">
          <mxGeometry x="685.71" y="181.19" width="90" height="40" as="geometry" />
        </mxCell>
        <mxCell id="y6iIFHCWrGGD8kHIuGfN-36" value="&lt;u&gt;Participant 2&lt;/u&gt;&lt;br&gt;&lt;i&gt;SP003&lt;/i&gt;" style="text;html=1;align=center;verticalAlign=middle;resizable=0;points=[];autosize=1;strokeColor=none;fillColor=none;" parent="1" vertex="1">
          <mxGeometry x="685.71" y="301.4" width="90" height="40" as="geometry" />
        </mxCell>
        <mxCell id="y6iIFHCWrGGD8kHIuGfN-37" value="&lt;u&gt;Participant 83&lt;/u&gt;&lt;br&gt;&lt;i&gt;SP113&lt;/i&gt;" style="text;html=1;align=center;verticalAlign=middle;resizable=0;points=[];autosize=1;strokeColor=none;fillColor=none;" parent="1" vertex="1">
          <mxGeometry x="680.71" y="421" width="100" height="40" as="geometry" />
        </mxCell>
        <mxCell id="y6iIFHCWrGGD8kHIuGfN-39" value="" style="line;strokeWidth=2;html=1;" parent="1" vertex="1">
          <mxGeometry x="368.5" y="355" width="71.5" height="10" as="geometry" />
        </mxCell>
        <mxCell id="y6iIFHCWrGGD8kHIuGfN-40" value="" style="group" parent="1" vertex="1" connectable="0">
          <mxGeometry x="600" y="235" width="94" height="249.81" as="geometry" />
        </mxCell>
        <mxCell id="y6iIFHCWrGGD8kHIuGfN-19" value="" style="line;strokeWidth=2;html=1;" parent="y6iIFHCWrGGD8kHIuGfN-40" vertex="1">
          <mxGeometry x="4" y="239.81" width="90" height="10" as="geometry" />
        </mxCell>
        <mxCell id="y6iIFHCWrGGD8kHIuGfN-21" value="" style="line;strokeWidth=2;direction=south;html=1;" parent="y6iIFHCWrGGD8kHIuGfN-40" vertex="1">
          <mxGeometry y="5" width="10" height="120" as="geometry" />
        </mxCell>
        <mxCell id="y6iIFHCWrGGD8kHIuGfN-25" value="" style="line;strokeWidth=2;html=1;" parent="y6iIFHCWrGGD8kHIuGfN-40" vertex="1">
          <mxGeometry x="4" y="119.81" width="90" height="10" as="geometry" />
        </mxCell>
        <mxCell id="y6iIFHCWrGGD8kHIuGfN-26" value="" style="line;strokeWidth=2;html=1;" parent="y6iIFHCWrGGD8kHIuGfN-40" vertex="1">
          <mxGeometry x="4" width="90" height="10" as="geometry" />
        </mxCell>
        <mxCell id="y6iIFHCWrGGD8kHIuGfN-120" value="" style="endArrow=none;dashed=1;html=1;rounded=0;startArrow=classic;startFill=1;" parent="y6iIFHCWrGGD8kHIuGfN-40" edge="1">
          <mxGeometry width="50" height="50" relative="1" as="geometry">
            <mxPoint x="5" y="235" as="sourcePoint" />
            <mxPoint x="4.720000000000027" y="125" as="targetPoint" />
          </mxGeometry>
        </mxCell>
        <mxCell id="y6iIFHCWrGGD8kHIuGfN-76" value="" style="group" parent="1" vertex="1" connectable="0">
          <mxGeometry x="944" y="185" width="70" height="70.61" as="geometry" />
        </mxCell>
        <mxCell id="y6iIFHCWrGGD8kHIuGfN-74" value="" style="image;aspect=fixed;html=1;points=[];align=center;fontSize=12;image=img/lib/azure2/general/Folder_Blank.svg;flipV=0;flipH=1;" parent="y6iIFHCWrGGD8kHIuGfN-76" vertex="1">
          <mxGeometry x="9.29" y="37" width="41.42" height="33.61" as="geometry" />
        </mxCell>
        <mxCell id="y6iIFHCWrGGD8kHIuGfN-75" value="1. spectra" style="text;html=1;align=center;verticalAlign=middle;resizable=0;points=[];autosize=1;strokeColor=none;fillColor=none;" parent="y6iIFHCWrGGD8kHIuGfN-76" vertex="1">
          <mxGeometry x="-10" y="6" width="80" height="30" as="geometry" />
        </mxCell>
        <mxCell id="y6iIFHCWrGGD8kHIuGfN-80" value="" style="group" parent="1" vertex="1" connectable="0">
          <mxGeometry x="944" y="427" width="95" height="70.61" as="geometry" />
        </mxCell>
        <mxCell id="y6iIFHCWrGGD8kHIuGfN-81" value="" style="image;aspect=fixed;html=1;points=[];align=center;fontSize=12;image=img/lib/azure2/general/Folder_Blank.svg;flipV=0;flipH=1;" parent="y6iIFHCWrGGD8kHIuGfN-80" vertex="1">
          <mxGeometry x="9.29" y="37" width="41.42" height="33.61" as="geometry" />
        </mxCell>
        <mxCell id="y6iIFHCWrGGD8kHIuGfN-82" value="3. gazecalbration" style="text;html=1;align=center;verticalAlign=middle;resizable=0;points=[];autosize=1;strokeColor=none;fillColor=none;" parent="y6iIFHCWrGGD8kHIuGfN-80" vertex="1">
          <mxGeometry x="-25" y="6" width="110" height="30" as="geometry" />
        </mxCell>
        <mxCell id="y6iIFHCWrGGD8kHIuGfN-84" value="" style="group" parent="1" vertex="1" connectable="0">
          <mxGeometry x="1030" y="427" width="95" height="68.61000000000001" as="geometry" />
        </mxCell>
        <mxCell id="y6iIFHCWrGGD8kHIuGfN-85" value="" style="image;aspect=fixed;html=1;points=[];align=center;fontSize=12;image=img/lib/azure2/general/Folder_Blank.svg;flipV=0;flipH=1;" parent="y6iIFHCWrGGD8kHIuGfN-84" vertex="1">
          <mxGeometry x="9.289999999999964" y="37" width="41.42" height="33.61" as="geometry" />
        </mxCell>
        <mxCell id="y6iIFHCWrGGD8kHIuGfN-86" value="&lt;i&gt;000&lt;/i&gt;" style="text;html=1;align=center;verticalAlign=middle;resizable=0;points=[];autosize=1;strokeColor=none;fillColor=none;" parent="y6iIFHCWrGGD8kHIuGfN-84" vertex="1">
          <mxGeometry x="7" y="6" width="40" height="30" as="geometry" />
        </mxCell>
        <mxCell id="y6iIFHCWrGGD8kHIuGfN-90" value="" style="group" parent="1" vertex="1" connectable="0">
          <mxGeometry x="843" y="236" width="94" height="249.81" as="geometry" />
        </mxCell>
        <mxCell id="y6iIFHCWrGGD8kHIuGfN-91" value="" style="line;strokeWidth=2;html=1;" parent="y6iIFHCWrGGD8kHIuGfN-90" vertex="1">
          <mxGeometry x="4" y="239.81" width="90" height="10" as="geometry" />
        </mxCell>
        <mxCell id="y6iIFHCWrGGD8kHIuGfN-92" value="" style="line;strokeWidth=2;direction=south;html=1;" parent="y6iIFHCWrGGD8kHIuGfN-90" vertex="1">
          <mxGeometry y="5" width="10" height="240" as="geometry" />
        </mxCell>
        <mxCell id="y6iIFHCWrGGD8kHIuGfN-93" value="" style="line;strokeWidth=2;html=1;" parent="y6iIFHCWrGGD8kHIuGfN-90" vertex="1">
          <mxGeometry x="4" y="119.81" width="90" height="10" as="geometry" />
        </mxCell>
        <mxCell id="y6iIFHCWrGGD8kHIuGfN-94" value="" style="line;strokeWidth=2;html=1;" parent="y6iIFHCWrGGD8kHIuGfN-90" vertex="1">
          <mxGeometry x="4" width="90" height="10" as="geometry" />
        </mxCell>
        <mxCell id="y6iIFHCWrGGD8kHIuGfN-95" value="" style="line;strokeWidth=2;html=1;" parent="y6iIFHCWrGGD8kHIuGfN-90" vertex="1">
          <mxGeometry x="-73" y="120" width="90" height="10" as="geometry" />
        </mxCell>
        <mxCell id="y6iIFHCWrGGD8kHIuGfN-111" value="&lt;div&gt;&lt;font style=&quot;font-size: 12px;&quot;&gt;&lt;u&gt;1.1 uncalibrated spectra &lt;/u&gt;&lt;/font&gt;&lt;br&gt;&lt;font style=&quot;font-size: 12px;&quot;&gt;&lt;i&gt;20210604150405.csv&lt;/i&gt;&lt;/font&gt;&lt;br&gt;&lt;/div&gt;" style="text;whiteSpace=wrap;html=1;align=left;" parent="1" vertex="1">
          <mxGeometry x="1182.9299999999998" y="2.19" width="220" height="40.81" as="geometry" />
        </mxCell>
        <mxCell id="y6iIFHCWrGGD8kHIuGfN-112" value="&lt;div&gt;&lt;u&gt;&lt;font style=&quot;font-size: 12px;&quot;&gt;1.2 calibrated spectra&lt;br&gt;&lt;/font&gt;&lt;/u&gt;&lt;/div&gt;&lt;div&gt;&lt;font style=&quot;font-size: 12px;&quot;&gt;&lt;i&gt;20210604150405_calibrated_interp.csv&lt;br&gt;&lt;/i&gt;&lt;/font&gt;&lt;u&gt;&lt;font style=&quot;font-size: 12px;&quot;&gt; &lt;/font&gt;&lt;/u&gt;&lt;/div&gt;" style="text;whiteSpace=wrap;html=1;align=left;" parent="1" vertex="1">
          <mxGeometry x="1182.9299999999998" y="121.1" width="244.8" height="43" as="geometry" />
        </mxCell>
        <mxCell id="y6iIFHCWrGGD8kHIuGfN-116" value="&lt;div&gt;&lt;u&gt;&lt;font style=&quot;font-size: 12px;&quot;&gt;1.3 pupil images&lt;/font&gt;&lt;/u&gt;&lt;br&gt;&lt;i&gt;&lt;font style=&quot;font-size: 12px;&quot;&gt;20210604150405.jpg&lt;/font&gt;&lt;/i&gt;&lt;br&gt;&lt;/div&gt;" style="text;whiteSpace=wrap;html=1;align=left;" parent="1" vertex="1">
          <mxGeometry x="1182.9299999999998" y="245" width="143.48" height="40" as="geometry" />
        </mxCell>
        <mxCell id="y6iIFHCWrGGD8kHIuGfN-118" value="" style="line;strokeWidth=2;html=1;" parent="1" vertex="1">
          <mxGeometry x="1090" y="474.81" width="30" height="10" as="geometry" />
        </mxCell>
        <mxCell id="y6iIFHCWrGGD8kHIuGfN-121" value="" style="endArrow=none;dashed=1;html=1;rounded=0;strokeColor=default;startArrow=classic;startFill=1;" parent="1" edge="1">
          <mxGeometry width="50" height="50" relative="1" as="geometry">
            <mxPoint x="730" y="420" as="sourcePoint" />
            <mxPoint x="730" y="388" as="targetPoint" />
          </mxGeometry>
        </mxCell>
        <mxCell id="y6iIFHCWrGGD8kHIuGfN-72" value="" style="sketch=0;outlineConnect=0;fontColor=#232F3E;gradientColor=none;fillColor=#232F3D;strokeColor=none;dashed=0;verticalLabelPosition=bottom;verticalAlign=top;align=center;html=1;fontSize=12;fontStyle=0;aspect=fixed;pointerEvents=1;shape=mxgraph.aws4.document;" parent="1" vertex="1">
          <mxGeometry x="1219.62" y="43" width="28.64" height="39.19" as="geometry" />
        </mxCell>
        <mxCell id="y6iIFHCWrGGD8kHIuGfN-128" value="" style="sketch=0;outlineConnect=0;fontColor=#232F3E;gradientColor=none;fillColor=#232F3D;strokeColor=none;dashed=0;verticalLabelPosition=bottom;verticalAlign=top;align=center;html=1;fontSize=12;fontStyle=0;aspect=fixed;pointerEvents=1;shape=mxgraph.aws4.document;" parent="1" vertex="1">
          <mxGeometry x="1219.3249999999998" y="162" width="29.23" height="40" as="geometry" />
        </mxCell>
        <mxCell id="y6iIFHCWrGGD8kHIuGfN-129" value="" style="points=[];aspect=fixed;html=1;align=center;shadow=0;dashed=0;fillColor=#FF6A00;strokeColor=none;shape=mxgraph.alibaba_cloud.mps-produce;" parent="1" vertex="1">
          <mxGeometry x="1213.7399999999998" y="403" width="40.4" height="35" as="geometry" />
        </mxCell>
        <mxCell id="y6iIFHCWrGGD8kHIuGfN-130" value="" style="sketch=0;outlineConnect=0;fontColor=#232F3E;gradientColor=none;fillColor=#ED7100;strokeColor=none;dashed=0;verticalLabelPosition=bottom;verticalAlign=top;align=center;html=1;fontSize=12;fontStyle=0;aspect=fixed;pointerEvents=1;shape=mxgraph.aws4.container_registry_image;" parent="1" vertex="1">
          <mxGeometry x="1216.4399999999998" y="283" width="35" height="35" as="geometry" />
        </mxCell>
        <mxCell id="y6iIFHCWrGGD8kHIuGfN-132" value="" style="sketch=0;outlineConnect=0;fontColor=#232F3E;gradientColor=none;fillColor=#232F3D;strokeColor=none;dashed=0;verticalLabelPosition=bottom;verticalAlign=top;align=center;html=1;fontSize=12;fontStyle=0;aspect=fixed;pointerEvents=1;shape=mxgraph.aws4.document;" parent="1" vertex="1">
          <mxGeometry x="1219.62" y="520" width="28.64" height="39.19" as="geometry" />
        </mxCell>
        <mxCell id="y6iIFHCWrGGD8kHIuGfN-135" value="" style="sketch=0;outlineConnect=0;fontColor=#232F3E;gradientColor=none;fillColor=#232F3D;strokeColor=none;dashed=0;verticalLabelPosition=bottom;verticalAlign=top;align=center;html=1;fontSize=12;fontStyle=0;aspect=fixed;pointerEvents=1;shape=mxgraph.aws4.document;" parent="1" vertex="1">
          <mxGeometry x="1219.62" y="639" width="28.64" height="39.19" as="geometry" />
        </mxCell>
        <mxCell id="y6iIFHCWrGGD8kHIuGfN-138" value="" style="line;strokeWidth=2;html=1;" parent="1" vertex="1">
          <mxGeometry x="1014" y="235" width="106" height="10" as="geometry" />
        </mxCell>
        <mxCell id="y6iIFHCWrGGD8kHIuGfN-139" value="" style="line;strokeWidth=2;html=1;" parent="1" vertex="1">
          <mxGeometry x="1003" y="474.81" width="30" height="10" as="geometry" />
        </mxCell>
        <mxCell id="y6iIFHCWrGGD8kHIuGfN-141" value="" style="group" parent="1" vertex="1" connectable="0">
          <mxGeometry x="1116" y="55.19" width="94" height="249.81" as="geometry" />
        </mxCell>
        <mxCell id="y6iIFHCWrGGD8kHIuGfN-142" value="" style="line;strokeWidth=2;html=1;" parent="y6iIFHCWrGGD8kHIuGfN-141" vertex="1">
          <mxGeometry x="4" y="239.81" width="90" height="10" as="geometry" />
        </mxCell>
        <mxCell id="y6iIFHCWrGGD8kHIuGfN-143" value="" style="line;strokeWidth=2;direction=south;html=1;" parent="y6iIFHCWrGGD8kHIuGfN-141" vertex="1">
          <mxGeometry y="5" width="10" height="240" as="geometry" />
        </mxCell>
        <mxCell id="y6iIFHCWrGGD8kHIuGfN-144" value="" style="line;strokeWidth=2;html=1;" parent="y6iIFHCWrGGD8kHIuGfN-141" vertex="1">
          <mxGeometry x="4" y="119.81" width="90" height="10" as="geometry" />
        </mxCell>
        <mxCell id="y6iIFHCWrGGD8kHIuGfN-145" value="" style="line;strokeWidth=2;html=1;" parent="y6iIFHCWrGGD8kHIuGfN-141" vertex="1">
          <mxGeometry x="4" width="90" height="10" as="geometry" />
        </mxCell>
        <mxCell id="y6iIFHCWrGGD8kHIuGfN-147" value="" style="group" parent="1" vertex="1" connectable="0">
          <mxGeometry x="1116" y="414" width="94" height="249.81" as="geometry" />
        </mxCell>
        <mxCell id="y6iIFHCWrGGD8kHIuGfN-148" value="" style="line;strokeWidth=2;html=1;" parent="y6iIFHCWrGGD8kHIuGfN-147" vertex="1">
          <mxGeometry x="4" y="239.81" width="90" height="10" as="geometry" />
        </mxCell>
        <mxCell id="y6iIFHCWrGGD8kHIuGfN-149" value="" style="line;strokeWidth=2;direction=south;html=1;" parent="y6iIFHCWrGGD8kHIuGfN-147" vertex="1">
          <mxGeometry y="4" width="10" height="240" as="geometry" />
        </mxCell>
        <mxCell id="y6iIFHCWrGGD8kHIuGfN-150" value="" style="line;strokeWidth=2;html=1;" parent="y6iIFHCWrGGD8kHIuGfN-147" vertex="1">
          <mxGeometry x="6" y="119.81" width="90" height="10" as="geometry" />
        </mxCell>
        <mxCell id="y6iIFHCWrGGD8kHIuGfN-151" value="" style="line;strokeWidth=2;html=1;" parent="y6iIFHCWrGGD8kHIuGfN-147" vertex="1">
          <mxGeometry x="4" width="90" height="10" as="geometry" />
        </mxCell>
        <mxCell id="y6iIFHCWrGGD8kHIuGfN-156" value="&lt;div&gt;&lt;font style=&quot;font-size: 12px;&quot;&gt;&lt;u&gt;3.1 calibration video&lt;/u&gt;&lt;/font&gt;&lt;br&gt;&lt;i&gt;&lt;font style=&quot;font-size: 12px;&quot;&gt;eye0.mp4&lt;/font&gt;&lt;/i&gt;&lt;/div&gt;" style="text;whiteSpace=wrap;html=1;align=left;" parent="1" vertex="1">
          <mxGeometry x="1182.9299999999998" y="363" width="130" height="40" as="geometry" />
        </mxCell>
        <mxCell id="y6iIFHCWrGGD8kHIuGfN-157" value="&lt;div&gt;&lt;font style=&quot;font-size: 12px;&quot;&gt;&lt;u&gt;3.2 info file&lt;/u&gt;&lt;/font&gt;&lt;br&gt;&lt;/div&gt;&lt;div&gt;&lt;font style=&quot;font-size: 12px;&quot;&gt;&lt;i&gt;info.csv&lt;/i&gt;&lt;/font&gt;&lt;/div&gt;" style="text;whiteSpace=wrap;html=1;align=left;" parent="1" vertex="1">
          <mxGeometry x="1182.9299999999998" y="481" width="130" height="40" as="geometry" />
        </mxCell>
        <mxCell id="y6iIFHCWrGGD8kHIuGfN-158" value="&lt;div&gt;&lt;u&gt;3.3 &lt;span lang=&quot;de&quot; class=&quot;BxUVEf ILfuVd&quot;&gt;&lt;span class=&quot;hgKElc&quot;&gt;– 3.5 &lt;/span&gt;&lt;/span&gt;&lt;/u&gt;&lt;u&gt;supplementary files&lt;/u&gt;&lt;br&gt;&lt;u&gt;&lt;span lang=&quot;de&quot; class=&quot;BxUVEf ILfuVd&quot;&gt;&lt;span class=&quot;hgKElc&quot;&gt;&lt;/span&gt;&lt;/span&gt;&lt;/u&gt;&lt;i&gt;&lt;span lang=&quot;de&quot; class=&quot;BxUVEf ILfuVd&quot;&gt;&lt;span class=&quot;hgKElc&quot;&gt;eye0_timestamps.npy&lt;/span&gt;&lt;/span&gt;&lt;span lang=&quot;de&quot; class=&quot;BxUVEf ILfuVd&quot;&gt;&lt;span class=&quot;hgKElc&quot;&gt;, pupil.pldata, ...&lt;/span&gt;&lt;/span&gt;&lt;/i&gt;&lt;br&gt;&lt;i&gt;&lt;span lang=&quot;de&quot; class=&quot;BxUVEf ILfuVd&quot;&gt;&lt;span class=&quot;hgKElc&quot;&gt;&lt;/span&gt;&lt;/span&gt;&lt;/i&gt;&lt;/div&gt;" style="text;whiteSpace=wrap;html=1;align=left;" parent="1" vertex="1">
          <mxGeometry x="1182.9299999999998" y="599" width="210.8" height="40" as="geometry" />
        </mxCell>
        <mxCell id="y6iIFHCWrGGD8kHIuGfN-159" value="" style="group" parent="1" vertex="1" connectable="0">
          <mxGeometry x="893" y="312" width="160" height="65.85999999999996" as="geometry" />
        </mxCell>
        <mxCell id="y6iIFHCWrGGD8kHIuGfN-125" value="" style="sketch=0;outlineConnect=0;fontColor=#232F3E;gradientColor=none;fillColor=#ED7100;strokeColor=none;dashed=0;verticalLabelPosition=bottom;verticalAlign=top;align=center;html=1;fontSize=12;fontStyle=0;aspect=fixed;pointerEvents=1;shape=mxgraph.aws4.container_registry_image;" parent="y6iIFHCWrGGD8kHIuGfN-159" vertex="1">
          <mxGeometry x="60.5" y="30.859999999999957" width="35" height="35" as="geometry" />
        </mxCell>
        <mxCell id="y6iIFHCWrGGD8kHIuGfN-110" value="&lt;i&gt;2. SP003_PLsettings.png&lt;/i&gt;" style="text;html=1;align=center;verticalAlign=middle;resizable=0;points=[];autosize=1;strokeColor=none;fillColor=none;" parent="y6iIFHCWrGGD8kHIuGfN-159" vertex="1">
          <mxGeometry x="-2" width="160" height="30" as="geometry" />
        </mxCell>
        <mxCell id="y6iIFHCWrGGD8kHIuGfN-160" value="&lt;font color=&quot;#f5f5f5&quot;&gt;&lt;i&gt;N&lt;/i&gt; = 83&lt;/font&gt;" style="text;html=1;align=center;verticalAlign=middle;resizable=0;points=[];autosize=1;strokeColor=none;fillColor=none;" parent="1" vertex="1">
          <mxGeometry x="451.89" y="354.81" width="60" height="30" as="geometry" />
        </mxCell>
        <mxCell id="izVqAHq4pm1c2BUYv1mT-2" value="" style="line;strokeWidth=2;direction=south;html=1;" vertex="1" parent="1">
          <mxGeometry x="476.89" y="384.81" width="10" height="81.29" as="geometry" />
        </mxCell>
        <mxCell id="izVqAHq4pm1c2BUYv1mT-4" value="" style="sketch=0;outlineConnect=0;fontColor=#232F3E;gradientColor=none;fillColor=#232F3D;strokeColor=none;dashed=0;verticalLabelPosition=bottom;verticalAlign=top;align=center;html=1;fontSize=12;fontStyle=0;aspect=fixed;pointerEvents=1;shape=mxgraph.aws4.document;" vertex="1" parent="1">
          <mxGeometry x="467.5799999999999" y="557" width="28.64" height="39.19" as="geometry" />
        </mxCell>
        <mxCell id="izVqAHq4pm1c2BUYv1mT-5" value="&lt;div&gt;&lt;font style=&quot;font-size: 12px;&quot;&gt;&lt;u&gt;0. metadata files &lt;/u&gt;&lt;/font&gt;&lt;br&gt;&lt;font style=&quot;font-size: 12px;&quot;&gt;&lt;i&gt;demographic_data.csv&lt;br&gt;&lt;/i&gt;&lt;/font&gt;&lt;/div&gt;&lt;div&gt;&lt;font style=&quot;font-size: 12px;&quot;&gt;&lt;i&gt;sample_phase_tab.pdf&lt;/i&gt;&lt;/font&gt;&lt;/div&gt;&lt;div&gt;&lt;font style=&quot;font-size: 12px;&quot;&gt;&lt;i&gt;sat_files.csv&amp;nbsp; &lt;/i&gt;&lt;/font&gt;&lt;font style=&quot;font-size: 12px;&quot;&gt;&lt;i&gt;&lt;br&gt; sum_tab.pdf &lt;/i&gt;&lt;/font&gt;&lt;br&gt;&lt;/div&gt;" style="text;whiteSpace=wrap;html=1;align=left;" vertex="1" parent="1">
          <mxGeometry x="440" y="464.81" width="138.11" height="70" as="geometry" />
        </mxCell>
      </root>
    </mxGraphModel>
  </diagram>
</mxfile>
